<svg xmlns="http://www.w3.org/2000/svg" viewBox="-60 0 780 760">
  <style>
    image { image-rendering: pixelated; }
    .face { transform: scale(0.75); transform-origin: 239px 365px; }
    .ant-l { transform-origin: 175px 341px; }
    .ant-r { transform-origin: 233px 338px; }
    .arm-big { transform-origin: 330px 500px; }
    .claw-up { transform-origin: 388px 372px; }
    .arm-sm { transform-origin: 186px 455px; }
    .blink { transform-origin: 222px 390px; }
    .brow-l { transform-origin: 154px 296px; }
    .brow-r { transform-origin: 291px 296px; }
    .pet { transform-origin: 222px 700px; }
    .tail { transform-origin: 190px 560px; }

    .pet { animation: rdbHop 0.65s ease-in-out infinite; }
    @keyframes rdbHop { 0%, 100% { transform: translateY(0) scale(1,1); } 35% { transform: translateY(-20px) scale(0.99,1.02); } 60% { transform: translateY(0) scale(1.02,0.97); } 80% { transform: translateY(0) scale(1,1); } }
    .claw-up { animation: rdbSnap 0.32s steps(2, jump-none) infinite; }
    @keyframes rdbSnap { 0%, 100% { transform: rotate(-14deg); } 50% { transform: rotate(0deg); } }
    .arm-big { animation: rdbWave 0.65s ease-in-out infinite alternate; }
    @keyframes rdbWave { from { transform: rotate(-6deg); } to { transform: rotate(5deg); } }
    .arm-sm { animation: rdbArmL 0.65s ease-in-out infinite alternate; }
    @keyframes rdbArmL { from { transform: rotate(-16deg); } to { transform: rotate(6deg); } }
    .brow-l, .brow-r { animation: rdbBrow 0.65s ease-in-out infinite; }
    @keyframes rdbBrow { 0%, 100% { transform: translateY(0); } 35% { transform: translateY(-11px); } }
    .heart { opacity: 0; }
    .h1 { animation: rdbHeart 1.6s ease-out infinite; }
    .h2 { animation: rdbHeart 1.6s ease-out 0.8s infinite; }
    @keyframes rdbHeart { 0% { opacity: 0; transform: translate(0, 0) scale(0.7); } 15%, 60% { opacity: 1; transform: translate(-8px, -40px) scale(1); } 100% { opacity: 0; transform: translate(-16px, -90px) scale(1); } }

  </style>

  <rect x="60" y="698" width="420" height="12" fill="#1e2235" opacity="0.16"/><rect x="80" y="710" width="380" height="6" fill="#1e2235" opacity="0.09"/>
  <g class="pet">
  <g class="ant-l"><image href="p-antenna-left.png" x="69" y="122" width="112" height="228"/></g>
  <g class="ant-r"><image href="p-antenna-right.png" x="164" y="115" width="81" height="232"/></g>
  <g class="arm-big">
    <g style="transform:rotate(10deg);transform-origin:343px 421px"><image href="p-arm-left.png" x="275" y="323" width="137" height="197"/></g>
    <image href="p-claw-2.png" x="385" y="57" width="221" height="334"/>
    <g class="claw-up"><image href="p-claw-1.png" x="280" y="87" width="159" height="295"/></g>
  </g>
  <image href="p-tail-side.png" x="-45" y="470" width="250" height="200" class="tail"/>
  <g class="lg lg1"><image href="p-leg-1.png" x="90" y="550" width="60" height="102"/></g>
  <g class="lg lg2"><image href="p-leg-2.png" x="145" y="558" width="52" height="103"/></g>
  <g class="lg lg3"><image href="p-leg-3.png" x="205" y="558" width="52" height="103"/></g>
  <g class="lg lg4"><image href="p-leg-4.png" x="260" y="550" width="58" height="101"/></g>
  <image href="p-body-face.png" x="123" y="264" width="199" height="338"/>
  <g class="arm-sm"><image href="p-arm-right.png" x="73" y="405" width="123" height="177"/></g>
  
  <g class="face">
    <g class="brow-l"><image href="p-brow-l.png" x="133" y="283" width="42" height="26"/></g>
    <g class="brow-r"><image href="p-brow-r.png" x="271" y="283" width="41" height="26"/></g>
    <g class="blink"><image href="p-eye-l.png" x="130" y="326" width="45" height="72"/><image href="p-eye-r.png" x="270" y="326" width="43" height="72"/></g>
    <image href="p-cheek-left.png" x="117" y="400" width="66" height="36"/><image href="p-cheek-right.png" x="262" y="395" width="64" height="36"/><image href="p-mouth.png" x="183" y="408" width="79" height="57"/>
  </g>
  
  
    <g class="heart h1" fill="#ff5b6a">
      <rect x="90" y="180" width="16" height="16"/><rect x="114" y="180" width="16" height="16"/>
      <rect x="82" y="192" width="56" height="16"/><rect x="90" y="208" width="40" height="12"/>
      <rect x="100" y="220" width="20" height="10"/>
    </g>
    <g class="heart h2" fill="#ff8a9d">
      <rect x="150" y="140" width="12" height="12"/><rect x="168" y="140" width="12" height="12"/>
      <rect x="144" y="149" width="42" height="12"/><rect x="150" y="161" width="30" height="9"/>
      <rect x="158" y="170" width="14" height="8"/>
    </g>
  </g>
</svg>
